<svg id="レイヤー_1" data-name="レイヤー 1" xmlns="http://www.w3.org/2000/svg" xmlns:xlink="http://www.w3.org/1999/xlink" viewBox="0 0 1000 1000"><defs><style>.cls-1{fill:url(#名称未設定グラデーション_49);}.cls-2{fill:url(#名称未設定グラデーション_49-2);}.cls-3{fill:#ff0;}.cls-4{fill:#1a1a1a;}</style><linearGradient id="名称未設定グラデーション_49" x1="219.12" y1="516.69" x2="448.42" y2="287.39" gradientUnits="userSpaceOnUse"><stop offset="0" stop-color="lime"/><stop offset="0.18" stop-color="#2fff00"/><stop offset="0.36" stop-color="#5aff00"/><stop offset="0.54" stop-color="#7bff00"/><stop offset="0.71" stop-color="#93ff00"/><stop offset="0.87" stop-color="#a1ff00"/><stop offset="1" stop-color="#a6ff00"/></linearGradient><linearGradient id="名称未設定グラデーション_49-2" x1="436.87" y1="542.31" x2="563.13" y2="416.04" xlink:href="#名称未設定グラデーション_49"/></defs><path class="cls-1" d="M342.41,205.8h0a59,59,0,0,0-59,59V581h59a59,59,0,0,0,59-59V264.76A59,59,0,0,0,342.41,205.8Z"/><rect class="cls-2" x="441.04" y="377.33" width="117.93" height="203.69" rx="58.96"/><rect class="cls-3" x="598.63" y="205.8" width="117.93" height="375.22" rx="58.96"/><path class="cls-4" d="M161,692.71h0a12.81,12.81,0,0,0-12.8,12.81V774.2H161a12.8,12.8,0,0,0,12.81-12.8V705.52A12.81,12.81,0,0,0,161,692.71Z"/><path class="cls-4" d="M195.24,730a12.82,12.82,0,0,0-12.81,12.81V761.4a12.81,12.81,0,0,0,25.61,0V742.77A12.81,12.81,0,0,0,195.24,730Z"/><path class="cls-4" d="M229.46,692.71a12.81,12.81,0,0,0-12.8,12.81V761.4a12.81,12.81,0,0,0,25.61,0V705.52A12.81,12.81,0,0,0,229.46,692.71Z"/><path class="cls-4" d="M724.27,704.15h0A12.81,12.81,0,0,0,737.08,717h15.2V761.4a12.81,12.81,0,0,0,25.61,0V717H793a12.8,12.8,0,0,0,12.8-12.8V691.34H737.08A12.82,12.82,0,0,0,724.27,704.15Z"/><path class="cls-4" d="M473.84,692.71h0A12.81,12.81,0,0,0,461,705.52V774.2h12.81a12.8,12.8,0,0,0,12.8-12.8V705.52A12.81,12.81,0,0,0,473.84,692.71Z"/><path class="cls-4" d="M527.37,692.71h0a12.82,12.82,0,0,0-12.81,12.81V774.2h12.81a12.8,12.8,0,0,0,12.8-12.8V705.52A12.81,12.81,0,0,0,527.37,692.71Z"/><rect class="cls-4" x="548.79" y="729.96" width="25.61" height="44.24" rx="12.81"/><path class="cls-4" d="M595.82,692.71A12.82,12.82,0,0,0,583,705.52V761.4a12.81,12.81,0,0,0,25.61,0V705.52A12.81,12.81,0,0,0,595.82,692.71Z"/><path class="cls-4" d="M358.3,705.51a12.8,12.8,0,0,0,12.8,12.81h15.21V761.4a12.8,12.8,0,0,0,12.8,12.8h0a12.81,12.81,0,0,0,12.81-12.8V718.32H427a12.8,12.8,0,0,0,12.8-12.81v-12.8H371.1A12.8,12.8,0,0,0,358.3,705.51Z"/><path class="cls-4" d="M839,692.71a12.81,12.81,0,0,0-12.81,12.81V774.2H839a12.8,12.8,0,0,0,12.8-12.8V705.52A12.81,12.81,0,0,0,839,692.71Z"/><path class="cls-4" d="M303.67,692.18a41,41,0,1,0,41,41A41,41,0,0,0,303.67,692.18Zm0,60.88a19.87,19.87,0,1,1,19.87-19.87A19.87,19.87,0,0,1,303.67,753.06Z"/><path class="cls-4" d="M671.49,692.18a41,41,0,1,0,41,41A41,41,0,0,0,671.49,692.18Zm0,60.88a19.87,19.87,0,1,1,19.87-19.87A19.88,19.88,0,0,1,671.49,753.06Z"/></svg>